<?xml version="1.0" standalone="no"?>
<!DOCTYPE svg PUBLIC "-//W3C//DTD SVG 20010904//EN"
 "http://www.w3.org/TR/2001/REC-SVG-20010904/DTD/svg10.dtd">
<svg version="1.0" xmlns="http://www.w3.org/2000/svg"
 width="272.000000pt" height="340.000000pt" viewBox="0 0 272.000000 340.000000"
 preserveAspectRatio="xMidYMid meet">

<g transform="translate(0.000000,340.000000) scale(0.100000,-0.100000)"
fill="#ffffff" stroke="none">
<path d="M0 1700 l0 -1700 1360 0 1360 0 0 1700 0 1700 -1360 0 -1360 0 0
-1700z m1780 1490 c0 -5 -4 -10 -10 -10 -5 0 -10 5 -10 10 0 6 5 10 10 10 6 0
10 -4 10 -10z m176 -6 c-3 -9 -6 -47 -6 -85 0 -62 -2 -71 -21 -77 -20 -8 -21
-14 -20 -140 2 -127 1 -133 -19 -140 -21 -8 -22 -13 -21 -160 l2 -152 -33 -14
c-18 -8 -27 -15 -20 -15 8 -1 12 -26 12 -88 0 -87 0 -87 37 -125 29 -29 45
-38 71 -38 25 0 35 -5 39 -20 4 -15 14 -20 39 -20 24 0 37 -5 41 -17 13 -37
46 -63 81 -63 25 0 35 -5 39 -20 4 -15 14 -20 39 -20 27 0 37 -5 43 -22 17
-44 46 -61 96 -55 38 4 45 2 41 -10 -3 -8 -6 -244 -6 -524 0 -494 -1 -509 -19
-509 -12 0 -23 -11 -30 -30 -8 -25 -15 -30 -44 -30 -27 0 -36 -5 -40 -21 -4
-16 -12 -20 -35 -18 -34 4 -69 -21 -83 -60 -8 -19 -15 -22 -40 -19 -25 4 -32
1 -40 -19 -7 -18 -16 -23 -43 -23 -25 0 -35 -5 -39 -20 -4 -15 -14 -20 -40
-20 -26 0 -36 -5 -40 -20 -4 -15 -14 -20 -40 -20 -27 0 -36 -5 -40 -21 -4 -16
-12 -20 -35 -18 -33 4 -69 -21 -83 -58 -6 -18 -16 -23 -43 -23 -26 0 -35 -5
-39 -21 -5 -18 -11 -21 -37 -17 -26 4 -33 1 -41 -19 -7 -18 -16 -23 -43 -23
-25 0 -35 -5 -39 -20 -4 -15 -14 -20 -40 -20 -27 0 -36 -5 -40 -21 -4 -16 -12
-20 -35 -18 -33 4 -69 -21 -83 -58 -7 -20 -16 -23 -59 -23 -43 0 -52 3 -59 23
-11 28 5 47 50 56 l34 7 5 439 5 440 -48 48 c-31 30 -56 47 -72 47 -14 0 -30
9 -37 20 -8 12 -24 20 -40 20 -17 0 -33 8 -40 20 -8 12 -24 20 -38 20 -17 0
-38 13 -63 40 -24 26 -45 40 -62 40 -14 0 -30 9 -37 20 -8 12 -24 20 -40 20
-17 0 -33 8 -40 20 -7 11 -24 20 -38 20 -16 0 -39 15 -64 40 -24 24 -49 40
-63 40 -12 0 -28 9 -35 20 -8 12 -24 20 -39 20 -16 0 -36 12 -56 35 -17 19
-36 35 -42 35 -8 0 -11 -136 -11 -460 0 -449 0 -460 20 -470 35 -19 23 -80
-16 -80 -17 0 -27 8 -33 24 -5 13 -19 26 -30 29 -21 5 -21 7 -21 497 0 490 0
492 21 497 11 3 25 16 30 29 7 19 16 24 43 24 25 0 35 5 39 20 4 15 14 20 39
20 35 0 68 26 81 63 4 12 17 17 41 17 25 0 35 5 39 20 4 15 14 20 41 20 54 0
82 -32 100 -115 36 -167 63 -230 102 -245 14 -6 36 -22 49 -36 l24 -26 31 30
c37 37 37 44 2 77 l-27 26 25 19 25 19 -23 21 c-20 19 -23 30 -21 81 2 50 -1
63 -20 80 -19 17 -22 30 -20 80 2 50 -1 63 -20 80 -16 16 -21 30 -19 61 2 31
-3 43 -21 57 -20 15 -22 24 -20 99 2 74 -1 85 -20 103 -15 14 -22 31 -21 53 3
52 1 56 -29 56 -17 0 -34 8 -42 20 -14 19 -15 18 -52 -14 -36 -30 -38 -34 -26
-59 18 -40 -2 -79 -39 -75 l-27 3 -5 125 c-3 69 -5 125 -5 126 0 0 29 -2 64
-6 59 -6 64 -5 72 17 7 18 16 23 43 23 25 0 35 5 39 20 4 15 14 20 40 20 26 0
36 5 40 20 4 15 14 20 40 20 26 0 36 5 40 20 4 15 14 20 40 20 26 0 36 5 40
20 4 15 14 20 40 20 26 0 36 5 40 20 4 15 14 20 39 20 35 0 68 26 81 63 4 12
17 17 41 17 25 0 35 5 39 20 4 15 14 20 40 20 26 0 36 5 40 20 4 15 14 20 40
20 26 0 36 5 40 20 4 15 14 20 40 20 26 0 36 5 40 20 4 15 14 20 40 20 26 0
36 5 40 20 4 15 14 20 40 20 26 0 36 5 40 20 4 15 14 20 40 20 26 0 36 5 40
20 4 16 15 20 83 23 44 1 83 4 88 5 4 1 5 -5 2 -14z m-256 -34 c0 -5 -4 -10
-10 -10 -5 0 -10 5 -10 10 0 6 5 10 10 10 6 0 10 -4 10 -10z m-80 -40 c0 -5
-4 -10 -10 -10 -5 0 -10 5 -10 10 0 6 5 10 10 10 6 0 10 -4 10 -10z m-80 -40
c0 -5 -4 -10 -10 -10 -5 0 -10 5 -10 10 0 6 5 10 10 10 6 0 10 -4 10 -10z
m-80 -40 c0 -5 -4 -10 -10 -10 -5 0 -10 5 -10 10 0 6 5 10 10 10 6 0 10 -4 10
-10z m500 -20 c0 -5 -4 -10 -10 -10 -5 0 -10 5 -10 10 0 6 5 10 10 10 6 0 10
-4 10 -10z m-580 -20 c0 -5 -4 -10 -10 -10 -5 0 -10 5 -10 10 0 6 5 10 10 10
6 0 10 -4 10 -10z m-80 -40 c0 -5 -4 -10 -10 -10 -5 0 -10 5 -10 10 0 6 5 10
10 10 6 0 10 -4 10 -10z m-80 -40 c0 -5 -4 -10 -10 -10 -5 0 -10 5 -10 10 0 6
5 10 10 10 6 0 10 -4 10 -10z m-40 -40 c0 -5 -4 -10 -10 -10 -5 0 -10 5 -10
10 0 6 5 10 10 10 6 0 10 -4 10 -10z m-80 -40 c0 -5 -4 -10 -10 -10 -5 0 -10
5 -10 10 0 6 5 10 10 10 6 0 10 -4 10 -10z m-80 -40 c0 -5 -4 -10 -10 -10 -5
0 -10 5 -10 10 0 6 5 10 10 10 6 0 10 -4 10 -10z m-80 -40 c0 -5 -4 -10 -10
-10 -5 0 -10 5 -10 10 0 6 5 10 10 10 6 0 10 -4 10 -10z m980 -20 c0 -5 -4
-10 -10 -10 -5 0 -10 5 -10 10 0 6 5 10 10 10 6 0 10 -4 10 -10z m-1060 -20
c0 -5 -4 -10 -10 -10 -5 0 -10 5 -10 10 0 6 5 10 10 10 6 0 10 -4 10 -10z
m-80 -40 c0 -5 -4 -10 -10 -10 -5 0 -10 5 -10 10 0 6 5 10 10 10 6 0 10 -4 10
-10z m-80 -40 c0 -5 -4 -10 -10 -10 -5 0 -10 5 -10 10 0 6 5 10 10 10 6 0 10
-4 10 -10z m1180 -220 c0 -5 -4 -10 -10 -10 -5 0 -10 5 -10 10 0 6 5 10 10 10
6 0 10 -4 10 -10z m-1300 -80 c0 -5 -4 -10 -10 -10 -5 0 -10 5 -10 10 0 6 5
10 10 10 6 0 10 -4 10 -10z m85 -30 c3 -5 8 -39 12 -76 5 -54 10 -68 25 -72
15 -4 18 -10 13 -29 -3 -14 -1 -31 5 -38 25 -31 -25 -81 -59 -60 -14 8 -14 78
0 92 7 7 2 14 -20 21 l-31 11 0 80 c0 79 1 81 24 81 14 0 27 -4 31 -10z m1215
-70 c0 -5 -4 -10 -10 -10 -5 0 -10 5 -10 10 0 6 5 10 10 10 6 0 10 -4 10 -10z
m40 -40 c0 -5 -4 -10 -10 -10 -5 0 -10 5 -10 10 0 6 5 10 10 10 6 0 10 -4 10
-10z m80 -40 c0 -5 -4 -10 -10 -10 -5 0 -10 5 -10 10 0 6 5 10 10 10 6 0 10
-4 10 -10z m-1380 -20 c0 -5 -4 -10 -10 -10 -5 0 -10 5 -10 10 0 6 5 10 10 10
6 0 10 -4 10 -10z m1460 -20 c0 -5 -4 -10 -10 -10 -5 0 -10 5 -10 10 0 6 5 10
10 10 6 0 10 -4 10 -10z m40 -40 c0 -5 -4 -10 -10 -10 -5 0 -10 5 -10 10 0 6
5 10 10 10 6 0 10 -4 10 -10z m80 -40 c0 -5 -4 -10 -10 -10 -5 0 -10 5 -10 10
0 6 5 10 10 10 6 0 10 -4 10 -10z m-1540 -20 c0 -5 -4 -10 -10 -10 -5 0 -10 5
-10 10 0 6 5 10 10 10 6 0 10 -4 10 -10z m1620 -20 c0 -5 -4 -10 -10 -10 -5 0
-10 5 -10 10 0 6 5 10 10 10 6 0 10 -4 10 -10z m-1660 -40 c0 -5 -4 -10 -10
-10 -5 0 -10 5 -10 10 0 6 5 10 10 10 6 0 10 -4 10 -10z m1700 0 c0 -5 -4 -10
-10 -10 -5 0 -10 5 -10 10 0 6 5 10 10 10 6 0 10 -4 10 -10z m-1780 -40 c0 -5
-4 -10 -10 -10 -5 0 -10 5 -10 10 0 6 5 10 10 10 6 0 10 -4 10 -10z m-40 -40
c0 -5 -4 -10 -10 -10 -5 0 -10 5 -10 10 0 6 5 10 10 10 6 0 10 -4 10 -10z
m-80 -40 c0 -5 -4 -10 -10 -10 -5 0 -10 5 -10 10 0 6 5 10 10 10 6 0 10 -4 10
-10z m-80 -40 c0 -5 -4 -10 -10 -10 -5 0 -10 5 -10 10 0 6 5 10 10 10 6 0 10
-4 10 -10z m-40 -40 c0 -5 -4 -10 -10 -10 -5 0 -10 5 -10 10 0 6 5 10 10 10 6
0 10 -4 10 -10z m2100 -900 c0 -5 -4 -10 -10 -10 -5 0 -10 5 -10 10 0 6 5 10
10 10 6 0 10 -4 10 -10z m-40 -40 c0 -5 -4 -10 -10 -10 -5 0 -10 5 -10 10 0 6
5 10 10 10 6 0 10 -4 10 -10z m-80 -40 c0 -5 -4 -10 -10 -10 -5 0 -10 5 -10
10 0 6 5 10 10 10 6 0 10 -4 10 -10z m-1980 -40 c0 -5 -4 -10 -10 -10 -5 0
-10 5 -10 10 0 6 5 10 10 10 6 0 10 -4 10 -10z m1900 0 c0 -5 -4 -10 -10 -10
-5 0 -10 5 -10 10 0 6 5 10 10 10 6 0 10 -4 10 -10z m-1715 -40 c0 -31 -3 -35
-28 -38 -21 -3 -29 2 -36 20 -11 29 13 60 43 56 17 -2 21 -10 21 -38z m-145 0
c0 -5 -4 -10 -10 -10 -5 0 -10 5 -10 10 0 6 5 10 10 10 6 0 10 -4 10 -10z
m1820 0 c0 -5 -4 -10 -10 -10 -5 0 -10 5 -10 10 0 6 5 10 10 10 6 0 10 -4 10
-10z m-1605 -21 c4 -5 18 -14 32 -20 20 -7 24 -15 21 -41 -2 -28 -8 -34 -30
-36 -23 -3 -30 2 -38 24 -6 15 -20 34 -32 42 -20 15 -20 16 -3 29 23 16 41 17
50 2z m-135 -19 c0 -5 -4 -10 -10 -10 -5 0 -10 5 -10 10 0 6 5 10 10 10 6 0
10 -4 10 -10z m1660 0 c0 -5 -4 -10 -10 -10 -5 0 -10 5 -10 10 0 6 5 10 10 10
6 0 10 -4 10 -10z m-1580 -40 c0 -5 -4 -10 -10 -10 -5 0 -10 5 -10 10 0 6 5
10 10 10 6 0 10 -4 10 -10z m1500 0 c0 -5 -4 -10 -10 -10 -5 0 -10 5 -10 10 0
6 5 10 10 10 6 0 10 -4 10 -10z m-1315 -20 c10 -11 24 -20 31 -20 7 0 21 -9
31 -19 10 -10 27 -21 38 -23 15 -2 20 -11 20 -38 0 -31 -3 -35 -27 -38 -22 -3
-30 2 -37 21 -8 20 -15 23 -40 19 -26 -4 -32 0 -41 24 -6 15 -20 34 -31 42
-19 13 -19 15 -3 33 22 24 36 24 59 -1z m-145 -20 c0 -5 -4 -10 -10 -10 -5 0
-10 5 -10 10 0 6 5 10 10 10 6 0 10 -4 10 -10z m1380 0 c0 -5 -4 -10 -10 -10
-5 0 -10 5 -10 10 0 6 5 10 10 10 6 0 10 -4 10 -10z m-1300 -40 c0 -5 -4 -10
-10 -10 -5 0 -10 5 -10 10 0 6 5 10 10 10 6 0 10 -4 10 -10z m1220 0 c0 -5 -4
-10 -10 -10 -5 0 -10 5 -10 10 0 6 5 10 10 10 6 0 10 -4 10 -10z m-1180 -40
c0 -5 -4 -10 -10 -10 -5 0 -10 5 -10 10 0 6 5 10 10 10 6 0 10 -4 10 -10z
m1100 0 c0 -5 -4 -10 -10 -10 -5 0 -10 5 -10 10 0 6 5 10 10 10 6 0 10 -4 10
-10z m-880 -25 c7 -8 21 -15 31 -15 9 0 25 -8 35 -17 10 -10 27 -23 38 -28 14
-7 21 -20 21 -40 0 -25 -4 -30 -28 -33 -22 -3 -30 1 -34 17 -4 16 -13 21 -39
21 -28 0 -36 5 -45 27 -5 15 -19 33 -31 41 -20 15 -20 16 -3 29 24 17 40 17
55 -2z m-140 -15 c0 -5 -4 -10 -10 -10 -5 0 -10 5 -10 10 0 6 5 10 10 10 6 0
10 -4 10 -10z m980 0 c0 -5 -4 -10 -10 -10 -5 0 -10 5 -10 10 0 6 5 10 10 10
6 0 10 -4 10 -10z m-900 -40 c0 -5 -4 -10 -10 -10 -5 0 -10 5 -10 10 0 6 5 10
10 10 6 0 10 -4 10 -10z m820 0 c0 -5 -4 -10 -10 -10 -5 0 -10 5 -10 10 0 6 5
10 10 10 6 0 10 -4 10 -10z m-780 -40 c0 -5 -4 -10 -10 -10 -5 0 -10 5 -10 10
0 6 5 10 10 10 6 0 10 -4 10 -10z m700 0 c0 -5 -4 -10 -10 -10 -5 0 -10 5 -10
10 0 6 5 10 10 10 6 0 10 -4 10 -10z m-485 -21 c4 -5 18 -14 31 -19 39 -15 29
-80 -12 -80 -17 0 -28 8 -35 27 -5 15 -19 33 -31 41 -20 15 -20 16 -3 29 23
16 41 17 50 2z m-135 -19 c0 -5 -4 -10 -10 -10 -5 0 -10 5 -10 10 0 6 5 10 10
10 6 0 10 -4 10 -10z m540 0 c0 -5 -4 -10 -10 -10 -5 0 -10 5 -10 10 0 6 5 10
10 10 6 0 10 -4 10 -10z m-460 -40 c0 -5 -4 -10 -10 -10 -5 0 -10 5 -10 10 0
6 5 10 10 10 6 0 10 -4 10 -10z m380 0 c0 -5 -4 -10 -10 -10 -5 0 -10 5 -10
10 0 6 5 10 10 10 6 0 10 -4 10 -10z m-340 -40 c0 -5 -4 -10 -10 -10 -5 0 -10
5 -10 10 0 6 5 10 10 10 6 0 10 -4 10 -10z m260 0 c0 -5 -4 -10 -10 -10 -5 0
-10 5 -10 10 0 6 5 10 10 10 6 0 10 -4 10 -10z m-180 -40 c0 -5 -4 -10 -10
-10 -5 0 -10 5 -10 10 0 6 5 10 10 10 6 0 10 -4 10 -10z m140 0 c0 -5 -4 -10
-10 -10 -5 0 -10 5 -10 10 0 6 5 10 10 10 6 0 10 -4 10 -10z"/>
<path d="M1769 2063 c0 -5 -2 -25 -4 -45 -2 -21 0 -40 5 -43 15 -9 60 44 60
70 0 21 -5 25 -30 25 -16 0 -30 -3 -31 -7z"/>
</g>
</svg>
